<?xml version="1.0" standalone="no"?>
<!DOCTYPE svg PUBLIC "-//W3C//DTD SVG 20010904//EN"
 "http://www.w3.org/TR/2001/REC-SVG-20010904/DTD/svg10.dtd">
<svg version="1.0" xmlns="http://www.w3.org/2000/svg"
 width="666.000000pt" height="375.000000pt" viewBox="0 0 666.000000 375.000000"
 preserveAspectRatio="xMidYMid meet">

<g transform="translate(0.000000,375.000000) scale(0.100000,-0.100000)"
fill="#000000" stroke="none">
<path d="M1889 3623 c10 -16 92 -122 180 -238 l160 -210 1 -69 0 -69 -97 -101
c-226 -235 -376 -518 -443 -834 -30 -140 -38 -409 -16 -564 46 -328 198 -653
416 -891 40 -43 60 -73 56 -83 -3 -8 -64 -113 -136 -233 -71 -120 -130 -221
-130 -225 0 -3 565 -6 1256 -6 l1256 0 22 27 c11 15 132 171 268 347 l247 321
-110 3 c-70 2 -109 7 -109 13 0 6 20 43 45 83 159 255 245 561 245 869 0 280
-52 501 -176 752 -84 170 -173 294 -314 435 -235 236 -519 391 -845 460 -75
17 -150 23 -302 27 l-203 6 0 103 0 104 -646 0 -645 0 20 -27z m1148 -560 c-4
-256 -7 -636 -7 -844 0 -367 0 -377 -19 -372 -15 4 -19 0 -16 -14 2 -10 4 -21
4 -25 1 -5 8 -8 16 -8 12 0 15 -14 15 -70 0 -63 -2 -70 -20 -70 -15 0 -20 -7
-20 -26 0 -21 4 -25 20 -21 24 6 28 -18 4 -27 -8 -3 -12 -2 -9 4 3 6 0 10 -7
10 -10 0 -13 -23 -12 -97 2 -94 3 -98 25 -104 23 -7 23 -7 2 -8 -18 -1 -22 -8
-25 -53 -3 -38 0 -57 10 -68 8 -8 12 -9 8 -3 -4 7 -3 13 3 13 5 0 12 17 14 38
2 20 4 -67 5 -194 1 -127 5 -279 9 -337 l6 -107 826 -2 826 -3 -55 -25 c-118
-53 -135 -65 -210 -156 -41 -50 -93 -117 -115 -148 l-40 -56 -1015 1 -1015 1
-55 -27 c-30 -14 -63 -31 -73 -36 -11 -6 -20 -9 -22 -7 -2 2 57 107 131 233
l134 230 0 67 c0 37 5 70 10 73 6 3 10 1 10 -5 0 -6 4 -9 9 -5 6 3 13 -1 18
-9 5 -9 14 -12 20 -8 10 6 13 100 13 385 1 229 5 379 10 382 6 4 10 -92 10
-259 0 -256 1 -265 20 -271 11 -3 20 -11 20 -16 0 -6 -9 -7 -20 -4 -17 6 -20
2 -20 -30 0 -36 14 -59 38 -61 6 -1 23 -2 37 -2 14 -1 25 -7 25 -12 0 -6 -15
-8 -40 -4 -27 4 -40 3 -40 -5 0 -6 10 -11 23 -11 16 0 23 -6 24 -23 2 -21 1
-21 -12 -4 -11 15 -17 17 -32 8 -17 -10 -16 -11 5 -17 15 -4 21 -12 17 -22 -4
-12 -3 -12 9 -3 11 9 15 7 21 -11 4 -13 7 -26 6 -31 -1 -4 10 -7 24 -7 16 0
25 -6 25 -15 0 -8 5 -15 10 -15 15 0 12 47 -2 53 -7 3 2 8 20 12 27 6 31 11
26 29 -4 11 -16 29 -27 39 -11 9 -21 30 -21 47 -1 27 2 30 29 30 17 0 36 5 42
11 15 15 90 14 109 -1 7 -7 25 -9 39 -6 28 7 34 26 9 26 -11 0 -14 5 -10 16 3
9 6 22 6 29 0 8 12 15 28 17 24 3 27 6 24 38 -2 19 -9 41 -14 48 -8 9 -6 12 5
12 10 0 20 -13 25 -32 4 -17 17 -37 29 -45 21 -14 21 -13 29 124 8 125 12
1103 5 1180 -2 18 -7 30 -12 27 -5 -3 -9 4 -9 15 0 12 6 21 13 21 9 0 8 3 -2
9 -7 5 -11 14 -7 19 6 9 11 150 7 190 0 6 -10 12 -21 12 -23 0 -26 -10 -8 -28
9 -9 9 -12 0 -12 -7 0 -13 -15 -13 -32 -2 -31 -2 -31 -6 -5 -2 15 -8 25 -13
22 -5 -3 -7 -17 -4 -30 3 -16 0 -25 -8 -25 -21 0 -35 13 -40 35 -2 15 -12 20
-38 21 -18 0 -35 5 -37 11 -3 7 -19 10 -41 7 l-37 -5 48 27 c40 23 45 29 30
35 -10 4 -25 8 -33 8 -13 1 -13 0 0 -9 12 -8 12 -10 -4 -16 -11 -4 -21 -2 -26
6 -6 9 -13 8 -32 -4 -24 -16 -26 -16 -31 3 -5 19 -40 22 -79 6 -9 -3 -26 -1
-38 5 -12 6 -24 9 -27 6 -10 -10 -21 -91 -13 -96 4 -3 4 -28 0 -55 -5 -28 -11
-193 -14 -369 -3 -175 -8 -321 -11 -324 -3 -3 -5 4 -5 15 0 11 -3 22 -6 25
-11 12 -63 -17 -67 -37 -3 -11 -4 291 -3 670 l1 690 37 3 37 3 -36 52 c-126
182 -140 196 -164 181 -5 -3 -8 0 -7 8 2 7 -21 25 -51 41 l-55 27 459 0 458 0
-6 -467z m-846 380 c13 -16 12 -17 -3 -4 -10 7 -18 15 -18 17 0 8 8 3 21 -13z
m1439 -173 c143 -30 233 -61 377 -131 365 -178 645 -497 771 -877 40 -121 47
-156 32 -179 -10 -15 -10 -14 -5 10 3 17 2 26 -4 23 -5 -3 -12 6 -15 22 -13
50 -69 192 -76 192 -5 0 -10 -6 -13 -12 -2 -7 -8 -10 -12 -5 -5 4 0 14 11 22
18 14 18 14 -3 15 -13 0 -23 5 -23 11 0 6 7 9 15 5 16 -6 19 2 7 21 -6 9 -13
3 -26 -18 -15 -25 -16 -33 -5 -47 11 -14 10 -14 -8 1 -12 11 -19 25 -16 33 3
8 1 14 -4 14 -5 0 -24 29 -43 65 -19 36 -38 65 -42 65 -4 0 -8 5 -8 12 0 15
-125 181 -176 234 -236 245 -568 408 -894 439 -100 9 -110 13 -103 33 4 13 3
13 -10 -3 -8 -11 -19 -16 -23 -12 -5 4 -2 12 6 17 12 8 10 10 -7 10 -16 0 -21
4 -17 15 5 13 -5 15 -70 12 -67 -3 -76 -1 -76 14 0 26 19 28 195 25 115 -3
190 -10 265 -26z m-1460 -553 c0 -7 -4 -6 -10 3 -8 12 -10 9 -10 -12 0 -15 -9
-33 -20 -41 -11 -8 -17 -17 -13 -21 4 -4 3 -10 -2 -14 -11 -8 -30 -39 -58 -96
-18 -37 -18 -41 -3 -52 11 -8 13 -14 7 -19 -6 -3 -11 0 -11 7 0 9 -3 9 -10 -2
-9 -13 -10 -13 -11 0 -2 33 -30 -80 -32 -132 -2 -24 -17 -11 -17 15 -1 22 -1
22 -16 2 -8 -11 -12 -25 -9 -33 2 -7 1 -11 -4 -8 -5 3 -16 -14 -25 -39 -13
-32 -21 -42 -33 -38 -13 5 -14 3 -3 -17 10 -18 9 -25 -2 -36 -25 -26 -13 64
21 152 74 192 262 466 261 381z m422 -69 c-6 -6 -15 -8 -19 -4 -4 4 -1 11 7
16 19 12 27 3 12 -12z m286 -115 c-2 -10 3 -24 12 -31 13 -12 13 -13 -3 -8
-10 3 -22 6 -26 6 -7 0 -8 36 -2 48 6 11 22 -2 19 -15z m37 -62 c3 -5 1 -12
-5 -16 -5 -3 -10 1 -10 9 0 18 6 21 15 7z m575 -411 c99 -50 152 -142 231
-397 12 -40 26 -73 30 -73 5 0 9 -6 9 -12 1 -7 9 -31 20 -53 11 -22 19 -47 19
-55 0 -8 -10 8 -23 35 -32 69 -48 81 -71 55 -10 -11 -23 -20 -28 -20 -5 0 -15
-7 -22 -16 -9 -13 -12 12 -14 122 -2 160 -2 165 -21 222 -16 50 -100 147 -167
191 -59 39 -40 40 37 1z m-855 -150 c-3 -5 -12 -10 -18 -10 -7 0 -6 4 3 10 19
12 23 12 15 0z m395 -84 c0 -3 -4 -8 -10 -11 -5 -3 -10 -1 -10 4 0 6 5 11 10
11 6 0 10 -2 10 -4z m1537 -122 c-7 -103 -40 -278 -58 -300 -5 -6 -7 -13 -4
-16 7 -6 -60 -171 -87 -218 -62 -105 -122 -184 -198 -262 l-85 -88 -58 0 c-52
0 -57 2 -43 15 8 8 18 35 21 59 6 36 3 50 -19 85 -14 22 -26 49 -26 60 0 10
-9 21 -21 24 -11 3 -23 15 -26 27 -6 21 -30 22 -26 1 2 -6 -2 -11 -7 -11 -6 0
-10 8 -10 17 0 9 -3 13 -7 10 -9 -10 -73 100 -73 127 0 12 -5 27 -11 33 -9 9
-9 23 1 57 8 31 9 50 3 58 -6 7 -13 27 -17 43 -6 29 -5 29 9 10 24 -30 155
-256 155 -266 0 -5 3 -9 8 -9 4 0 12 -8 17 -19 37 -69 59 -107 71 -119 8 -7
19 -22 24 -33 12 -22 48 -25 74 -6 25 18 23 68 -7 163 -14 43 -28 102 -32 129
-4 28 -17 115 -30 195 -25 150 -43 353 -25 275 5 -22 16 -98 24 -170 16 -135
36 -229 59 -280 8 -16 19 -41 25 -55 5 -14 17 -41 26 -62 9 -20 16 -40 16 -45
0 -25 24 -32 52 -15 53 31 81 86 89 171 3 42 7 70 7 63 1 -7 13 -25 27 -39
l24 -27 25 57 c31 68 62 191 71 272 6 64 36 195 43 195 3 0 2 -48 -1 -106z
m-2111 -92 c-12 -12 -18 8 -10 35 l8 28 4 -28 c2 -16 1 -31 -2 -35z m574 28
c0 -5 -8 -10 -17 -10 -15 0 -16 2 -3 10 19 12 20 12 20 0z m0 -185 c0 -19 -5
-35 -11 -35 -5 0 -7 4 -4 10 3 5 1 18 -4 29 -10 18 -7 23 17 30 1 1 2 -15 2
-34z m594 -26 c-9 -24 -22 -48 -29 -54 -6 -5 -16 -18 -22 -28 -11 -22 -74 -94
-155 -178 -32 -34 -58 -63 -58 -66 0 -10 45 -42 60 -43 8 0 27 -6 42 -14 15
-8 42 -17 60 -21 18 -4 40 -13 48 -20 8 -7 32 -20 53 -30 27 -13 37 -23 37
-41 0 -12 5 -26 10 -29 6 -3 10 -17 10 -31 0 -18 6 -24 23 -25 21 -2 21 -2 -3
-8 -14 -3 31 -8 100 -11 73 -4 -31 -7 -252 -8 l-378 -2 0 208 0 207 53 3 c142
8 216 68 218 179 l1 48 12 -35 c8 -19 11 -50 8 -67 -8 -55 37 -52 99 6 23 22
59 88 59 108 0 12 3 14 11 6 7 -7 5 -23 -7 -54z m-874 -149 c0 -5 -2 -10 -4
-10 -2 0 -12 -3 -22 -7 -16 -6 -17 -5 -4 10 17 19 30 22 30 7z m-230 -30 c0
-5 -4 -10 -10 -10 -5 0 -10 5 -10 10 0 6 5 10 10 10 6 0 10 -4 10 -10z m290
-40 c0 -3 -12 -6 -27 -7 -16 0 -20 1 -10 4 9 2 17 12 17 21 0 15 2 15 10 2 5
-8 10 -17 10 -20z m90 -10 c0 -5 -4 -10 -10 -10 -5 0 -10 5 -10 10 0 6 5 10
10 10 6 0 10 -4 10 -10z m-360 -219 c0 -14 -5 -18 -19 -14 -31 8 -35 33 -6 33
18 0 25 -5 25 -19z m90 9 c0 -5 -6 -10 -14 -10 -8 0 -18 5 -21 10 -3 6 3 10
14 10 12 0 21 -4 21 -10z m-2 -148 c3 -9 -2 -13 -14 -10 -9 1 -19 9 -22 16 -3
9 2 13 14 10 9 -1 19 -9 22 -16z m-56 -24 c-15 -15 -26 -4 -18 18 5 13 9 15
18 6 9 -9 9 -15 0 -24z m1798 -542 c0 -2 -8 -10 -17 -17 -16 -13 -17 -12 -4 4
13 16 21 21 21 13z"/>
<path d="M2544 3434 c-18 -14 -18 -15 4 -4 12 6 22 13 22 15 0 8 -5 6 -26 -11z"/>
<path d="M2406 3317 c3 -10 9 -15 12 -12 3 3 0 11 -7 18 -10 9 -11 8 -5 -6z"/>
<path d="M2931 2694 c0 -11 3 -14 6 -6 3 7 2 16 -1 19 -3 4 -6 -2 -5 -13z"/>
<path d="M2370 1951 c0 -6 7 -11 16 -11 10 0 14 -6 10 -15 -3 -8 -1 -15 5 -15
18 0 5 45 -13 48 -10 2 -18 -1 -18 -7z"/>
<path d="M2420 1933 c0 -13 5 -23 10 -23 13 0 13 11 0 30 -8 12 -10 11 -10 -7z"/>
<path d="M2991 1774 c0 -11 3 -14 6 -6 3 7 2 16 -1 19 -3 4 -6 -2 -5 -13z"/>
<path d="M2997 1740 c-21 -25 -21 -27 1 -33 15 -4 15 -5 -1 -6 -22 -1 -17 -25
6 -29 14 -3 17 5 17 42 0 25 -1 46 -3 46 -1 0 -10 -9 -20 -20z"/>
<path d="M2978 1040 c-3 -17 -1 -33 4 -36 5 -3 6 -21 2 -40 -5 -26 -3 -34 8
-34 11 0 13 13 10 63 -5 70 -17 94 -24 47z"/>
<path d="M2674 949 c-3 -6 -4 -13 0 -16 7 -7 56 5 56 15 0 12 -48 13 -56 1z"/>
<path d="M2640 900 c0 -5 6 -10 14 -10 8 0 18 5 21 10 3 6 -3 10 -14 10 -12 0
-21 -4 -21 -10z"/>
<path d="M2535 750 c3 -5 10 -10 16 -10 5 0 9 5 9 10 0 6 -7 10 -16 10 -8 0
-12 -4 -9 -10z"/>
<path d="M2600 725 c-8 -9 -8 -15 -2 -15 12 0 26 19 19 26 -2 2 -10 -2 -17
-11z"/>
<path d="M2640 726 c0 -2 7 -7 16 -10 8 -3 12 -2 9 4 -6 10 -25 14 -25 6z"/>
<path d="M2690 690 c0 -5 5 -10 10 -10 6 0 10 5 10 10 0 6 -4 10 -10 10 -5 0
-10 -4 -10 -10z"/>
<path d="M2117 2686 c-4 -10 -1 -13 9 -9 7 3 14 9 14 14 0 14 -17 10 -23 -5z"/>
</g>
</svg>
